# xmcd
#
# Track frame offsets: 
#        150
#        19265
#        30740
#        43567
#        54472
#        65962
#        75925
#        87335
#        102657
#        112247
#        124017
#        141272
#        156960
#        167570
#        186202
#        201960
#
# Disc length: 2845 seconds
#
# Revision: 8
# Processed by: cddbd v1.5.2PL0 Copyright (c) Steve Scherf et al.
# Submitted via: ExactAudioCopy v1.0b3
#
DISCID=e40b1b10
DTITLE=Various Artist - Go Country CD2
DYEAR=1996
DGENRE=Country
TTITLE0=Bobbie Gentry - Ode To Billie Joe
TTITLE1=Merle Haggard - Carolyn
TTITLE2=Dr. Hook - Sharing the Night Together
TTITLE3=Glen Campbell - It's Only Make Believe
TTITLE4=Wanda Jackson - In the Middle of a Heartache
TTITLE5=Willie Nelson - Touch Me
TTITLE6=Jean Shepard and Ferlin Husky - A Dear John Letter
TTITLE7=Dick Feller - The Credit Card Song
TTITLE8=Freddie Hart - My Hang-Up Is You
TTITLE9=Bobby Goldsboro - Watchin' Scotty Grow
TTITLE10=Kenny Rogers and Sheena Easton - We've Got Tonight
TTITLE11=Dottie West - Are You Happy Baby
TTITLE12=Faron Young - Hello Walls
TTITLE13=Juice Newton - Angel of the Morning
TTITLE14=Kenny Rogers - The Gambler
TTITLE15=Crystal Gayle - Don't It Make My Brown Eyes Blue
EXTD=
EXTT0=
EXTT1=
EXTT2=
EXTT3=
EXTT4=
EXTT5=
EXTT6=
EXTT7=
EXTT8=
EXTT9=
EXTT10=
EXTT11=
EXTT12=
EXTT13=
EXTT14=
EXTT15=
PLAYORDER=
